<svg width="175" height="242" viewBox="0 0 175 242" fill="none" xmlns="http://www.w3.org/2000/svg">
<path d="M164.965 222.792C166.061 212.596 161.322 199.934 147.295 190.771C142.774 187.823 138.58 185.833 135.987 184.51C136.699 191.776 138.637 198.018 142.021 202.831C145.814 208.26 157.57 218.016 162.803 222.161C153.999 219.619 145.721 217.558 136.299 215.063C136.377 212.297 135.545 208.456 134.475 204.849C133.29 200.882 131.84 197.205 130.816 195.561C127.823 190.795 123.826 187.085 120.194 184.188C116.545 181.296 113.225 179.212 111.146 177.861C110.304 189.089 112.84 199.794 133.965 214.447C125.141 212.092 116.597 209.671 107.971 206.681C108.168 203.807 107.321 188.276 96.8388 175.717C94.2767 172.68 91.9329 170.371 90.431 168.89C85.1094 183.426 93.2789 196.439 105.59 205.84C96.9947 202.761 88.9863 199.322 81.2378 195.014C83.1138 186.842 82.3447 171.194 74.092 156.419C63.6619 170.105 71.5404 186.057 79.081 193.79C71.5456 189.407 64.8052 184.477 58.5429 178.427C58.4546 178.343 58.3662 178.254 58.2779 178.165C61.0115 172.745 67.201 154.513 61.5312 139.22C50.8723 148.574 49.9993 162.125 55.1961 173.768C55.6119 174.759 56.1056 175.647 56.5837 176.464C56.5837 176.469 56.5889 176.474 56.5941 176.483C50.5709 170.329 45.5091 163.437 41.492 156.195C51.3868 144.533 54.7596 131.212 52.5873 118.503C39.3716 126.263 37.1266 143.024 40.463 154.303C36.451 146.729 33.1769 138.977 30.8071 131.23C43.0094 120.39 48.3363 107.719 48.3311 96.4299C38.0776 100.215 32.5273 109.457 30.7136 119.101C30.0484 122.502 29.8093 126.165 30.2875 129.473C27.9385 121.446 26.4314 113.512 25.761 104.882C27.6422 103.597 30.8175 100.761 33.9513 97.9625C36.3574 95.7711 46.7044 87.8186 48.9703 73.5022C38.4726 75.5815 31.5815 83.8003 28.006 92.7574C26.6808 96.1216 25.7558 99.9857 25.7038 103.948C25.444 100.257 25.3348 96.6495 25.4128 93.1545C25.5219 87.9027 26 82.6602 26.7484 77.4551C44.9479 67.6944 50.81 58.2047 53.1953 50.4017C41.6271 51.0885 32.4286 60.1297 27.9697 70.367C29.2481 63.9377 30.9735 57.5879 33.1354 51.3689C37.059 49.57 48.9963 43.9163 51.8026 41.6642C56.3135 38.0197 61.1778 31.4456 62.7628 27.8711C55.7366 27.3759 49.703 30.1279 44.397 34.3705C42.3806 35.9825 40.2863 37.9076 38.1555 40.6549C37.4436 41.5754 36.7316 42.6314 36.0248 43.7575C36.5653 42.4445 37.085 41.1222 37.6618 39.8233C37.9996 39.0383 38.2959 38.4028 38.5193 37.9076C39.6627 36.7955 41.4816 34.6275 43.4616 32.2399C46.086 29.0486 48.9911 25.4788 50.5813 23.166C57.3373 13.2324 59.5304 5.60693 61.4428 0C54.084 4.83131 48.0608 9.74205 43.3368 18.7131C41.9389 21.3577 40.2551 25.7125 39.143 29.7308C38.2491 32.8847 37.6878 35.8096 37.5839 37.5151C37.3448 38.0337 37.0122 38.7206 36.6381 39.5896C34.814 43.6173 32.6572 49.028 30.9215 54.2798C31.1657 52.7285 31.779 48.0935 32.5793 42.879C33.0158 40.0055 33.5043 36.9544 33.8785 34.1462C34.2475 31.3334 34.5333 28.7729 34.4658 26.8572C34.2891 21.4979 32.9119 15.4518 30.8643 8.63935C26.1871 16.5825 22.5389 25.2452 23.7758 34.9359C24.4202 40.2952 26.7224 50.7521 30.8123 54.6115C27.8813 63.5686 26.0884 71.666 24.997 79.8801C22.9131 53.8266 25.0646 52.8641 15.5023 35.1134C6.53768 59.6718 19.7586 77.8523 24.8359 81.137C23.8329 89.2297 23.5991 97.9859 24.2955 106.284C16.3598 82.235 18.9219 80.6558 4.86948 63.9004C1.12253 88.7578 15.5023 104.71 24.4773 108.247C25.2777 116.358 26.8575 124.427 29.352 132.469C15.7829 110.667 18.1008 108.518 0 94.5516C1.86568 122.67 23.5107 133.697 30.1316 134.908C32.6365 142.477 35.9001 150.06 39.9745 157.438C38.1504 155.569 35.5883 152.901 32.8859 149.981C32.2935 149.364 31.7166 148.729 31.1398 148.084C21.9932 138.122 19.8781 134.347 1.86568 125.974C10.2171 150.957 30.8123 160.242 41.492 160.087C45.6287 167.049 50.732 173.684 56.7552 179.599C56.5369 179.483 56.3135 179.361 56.0848 179.23C54.9207 178.59 53.6267 177.824 52.1975 177.002C50.8152 176.142 49.2665 175.254 47.7594 174.259C33.3172 165.241 32.7924 161.517 10.6744 156.555C20.7668 173.072 35.9884 184.52 56.5941 182.613C57.1294 182.562 57.6387 182.492 58.1168 182.403C58.5793 182.319 59.0055 182.221 59.4056 182.104C65.7614 187.902 72.5849 192.682 79.8554 196.78C78.3691 196.43 73.827 195.299 69.6227 194.065C51.6519 188.785 50.7008 186.188 27.133 186.08C50.1967 208.695 75.6563 203.476 83.4568 198.742C90.9403 202.686 98.5954 205.868 106.63 208.723C76.7944 207.167 75.7654 204.583 52.9875 211.456C83.3269 227.305 107.352 213.353 110.902 210.199C118.806 212.858 126.757 215.115 134.833 217.311C128.815 217.549 109.265 218.399 103.46 219.965C97.2078 221.661 90.7636 224.936 83.8986 229.3C87.4636 230.225 93.0087 231.594 99.1878 232.02C117.502 233.342 136.091 222.198 139.536 218.586C146.719 220.521 155.366 222.787 163.115 225.114C132.11 226.048 125.027 231.646 114.986 241.14C118.406 241.542 123.691 242.168 129.465 241.958C144.931 241.416 164.461 230.123 168.036 226.632C170.188 227.319 172.183 228.006 174.106 228.688C174.371 227.772 174.662 226.871 175 225.988C171.575 224.805 168.187 223.735 164.954 222.778L164.965 222.792Z" fill="white" fill-opacity="0.68"/>
</svg>
