<svg width="171" height="244" viewBox="0 0 171 244" fill="none" xmlns="http://www.w3.org/2000/svg">
<path d="M9.81598 224.623C8.7445 214.344 13.3757 201.577 27.0815 192.339C31.4995 189.366 35.5975 187.359 38.1315 186.026C37.4358 193.351 35.5416 199.645 32.2358 204.498C28.5288 209.972 17.0421 219.809 11.9285 223.987C20.5308 221.425 28.6202 219.347 37.8268 216.831C37.7506 214.042 38.5631 210.17 39.6092 206.533C40.767 202.533 42.1838 198.826 43.1842 197.167C46.1092 192.362 50.0142 188.621 53.5638 185.701C57.1287 182.784 60.3736 180.683 62.4048 179.322C63.2275 190.643 60.7493 201.436 40.1069 216.209C48.7295 213.835 57.0779 211.395 65.5075 208.38C65.3145 205.482 66.1423 189.823 76.3848 177.159C78.8883 174.097 81.1785 171.77 82.6461 170.277C87.8461 184.933 79.8633 198.053 67.8333 207.532C76.2325 204.427 84.0578 200.96 91.6293 196.616C89.7961 188.377 90.5476 172.599 98.6117 157.703C108.803 171.501 101.105 187.585 93.7367 195.382C101.1 190.963 107.686 185.993 113.805 179.892C113.892 179.807 113.978 179.718 114.064 179.628C111.393 174.163 105.345 155.781 110.885 140.361C121.301 149.793 122.154 163.455 117.076 175.195C116.669 176.194 116.187 177.089 115.72 177.913C115.72 177.918 115.715 177.923 115.71 177.932C121.595 171.728 126.541 164.779 130.467 157.477C120.798 145.718 117.502 132.287 119.625 119.473C132.538 127.298 134.732 144.196 131.472 155.569C135.392 147.932 138.592 140.116 140.907 132.305C128.984 121.376 123.779 108.599 123.784 97.2175C133.803 101.033 139.226 110.352 140.999 120.076C141.649 123.505 141.882 127.199 141.415 130.534C143.71 122.44 145.183 114.441 145.838 105.74C144 104.444 140.897 101.585 137.835 98.7627C135.484 96.5532 125.373 88.535 123.159 74.1003C133.417 76.1967 140.151 84.4835 143.644 93.5146C144.939 96.9065 145.843 100.803 145.894 104.798C146.148 101.076 146.254 97.4389 146.178 93.915C146.072 88.6198 145.604 83.334 144.873 78.0858C127.09 68.2444 121.362 58.6763 119.031 50.8088C130.335 51.5013 139.323 60.6172 143.68 70.9392C142.431 64.4567 140.745 58.0544 138.632 51.784C134.798 49.9702 123.134 44.2698 120.392 41.9991C115.984 38.3245 111.231 31.696 109.682 28.0921C116.548 27.5927 122.443 30.3675 127.628 34.6451C129.598 36.2705 131.645 38.2114 133.727 40.9815C134.422 41.9096 135.118 42.9743 135.809 44.1097C135.281 42.7859 134.773 41.4526 134.209 40.143C133.879 39.3515 133.59 38.7108 133.371 38.2114C132.254 37.0902 130.477 34.9043 128.542 32.4969C125.978 29.2792 123.139 25.68 121.585 23.348C114.973 13.3417 112.83 5.65327 110.962 0C118.152 4.87124 124.038 9.82256 128.654 18.8678C130.02 21.5343 131.665 25.925 132.752 29.9765C133.625 33.1565 134.174 36.1056 134.275 37.8251C134.509 38.348 134.834 39.0406 135.199 39.9168C136.982 43.9778 139.089 49.4332 140.785 54.7284C140.547 53.1643 139.947 48.491 139.165 43.2334C138.739 40.3361 138.261 37.2598 137.896 34.4284C137.535 31.5924 137.256 29.0107 137.322 27.0792C137.495 21.6756 138.84 15.5795 140.841 8.71075C145.411 16.7196 148.976 25.4539 147.768 35.2246C147.138 40.6282 144.888 51.1716 140.892 55.0629C143.756 64.094 145.508 72.2583 146.574 80.5403C148.611 54.2714 146.508 53.3009 155.852 35.4036C164.612 60.165 151.693 78.4957 146.732 81.8076C147.712 89.9671 147.94 98.7957 147.26 107.163C155.014 82.9147 152.511 81.3223 166.242 64.4285C169.903 89.4913 155.852 105.575 147.082 109.141C146.3 117.32 144.756 125.456 142.319 133.563C155.578 111.581 153.313 109.414 171 95.333C169.177 123.684 148.027 134.802 141.557 136.022C139.11 143.654 135.92 151.3 131.939 158.739C133.722 156.855 136.225 154.165 138.866 151.22C139.445 150.599 140.008 149.958 140.572 149.308C149.509 139.264 151.576 135.457 169.177 127.015C161.016 152.205 140.892 161.566 130.456 161.41C126.414 168.43 121.428 175.12 115.542 181.084C115.755 180.966 115.974 180.844 116.197 180.712C117.335 180.066 118.599 179.294 119.996 178.464C121.346 177.598 122.86 176.702 124.332 175.699C138.444 166.607 138.957 162.852 160.57 157.849C150.708 174.502 135.834 186.045 115.699 184.122C115.176 184.071 114.679 184 114.212 183.91C113.76 183.826 113.343 183.727 112.952 183.609C106.742 189.455 100.074 194.275 92.9699 198.406C94.4222 198.053 98.8605 196.913 102.969 195.669C120.529 190.346 121.458 187.726 144.487 187.618C121.951 210.42 97.073 205.157 89.4508 200.385C82.1383 204.361 74.6582 207.569 66.8075 210.448C95.9609 208.879 96.9664 206.274 119.224 213.204C89.5777 229.184 66.1017 215.117 62.6333 211.937C54.9095 214.617 47.14 216.893 39.2487 219.107C45.1291 219.347 64.2329 220.204 69.9052 221.783C76.0141 223.493 82.3109 226.795 89.0191 231.195C85.5355 232.128 80.1172 233.508 74.0794 233.937C56.1841 235.27 38.0198 224.035 34.653 220.393C27.635 222.343 19.1851 224.628 11.6136 226.974C41.9096 227.916 48.831 233.56 58.6419 243.133C55.3005 243.538 50.1361 244.17 44.4943 243.958C29.3819 243.411 10.2984 232.024 6.80467 228.505C4.70233 229.198 2.75233 229.89 0.873434 230.578C0.614451 229.655 0.330077 228.746 0 227.855C3.34647 226.663 6.6574 225.584 9.81598 224.619V224.623Z" fill="white" fill-opacity="0.68"/>
</svg>
